# xmcd
#
# Track frame offsets:
#	150
#	14724
#	27000
#	37028
#	49891
#	61326
#	75996
#	91750
#	106623
#	116917
#	128118
#	140458
#	151731
#	162628
#	173588
#	185066
#	195033
#	206715
#	223265
#	236337
#
# Disc length: 3327
#
# Revision: 1
# Processed by: cddbd v1.5.1PL0 Copyright (c) Steve Scherf et al.
# Submitted via: dBpowerAMP V4.0
# Normalized: r0:TSWAP
#
DISCID=0a0cfd14
DTITLE=Various Artist - 40 # 1 Hits
DYEAR=1900
DGENRE=Country
TTITLE0=Bellamy Brothers - Let Your Love Flow
TTITLE1=Charlie Rich - Behind Closed Doors
TTITLE2=Jim Reeves (Live) - He'll Have To Go
TTITLE3=Johnny Paycheck - Take This Job And Shove It
TTITLE4=Freddy Fender - Before The Next Teardrop Falls
TTITLE5=Glen Campbell (Live) - Rhinestone Cowboy
TTITLE6=Everly Brothers (Live) - All I Have To Do Is Dream
TTITLE7=Jeannie C. Riley - Harper Valley P.T.A.
TTITLE8=Ferlin Husky - Wings Of A Dove
TTITLE9=Donna Fargo - The Happiest Girl In The Whole U.S.A.
TTITLE10=Bobby Helms - Fraulein
TTITLE11=Sonny James - Young Love
TTITLE12=George Jones - Tender Years
TTITLE13=Guy Mitchell - Singing The Blues
TTITLE14=Ricky Nelson - Poor Little Fool
TTITLE15=Brenda Lee (Live) - I'm Sorry
TTITLE16=Merle Haggard (Live) - Okie From Muskogee
TTITLE17=John Denver (Live) - Thank God I'm A Country Boy
TTITLE18=Lynn Anderson - Rose Garden
TTITLE19=Kenny Rogers - Ruby, Don't Take Your Love To Town
EXTD=
EXTT0=
EXTT1=
EXTT2=
EXTT3=
EXTT4=
EXTT5=
EXTT6=
EXTT7=
EXTT8=
EXTT9=
EXTT10=
EXTT11=
EXTT12=
EXTT13=
EXTT14=
EXTT15=
EXTT16=
EXTT17=
EXTT18=
EXTT19=
PLAYORDER=
